<?xml version="1.0" encoding="UTF-8" standalone="no"?><svg xmlns="http://www.w3.org/2000/svg" xmlns:xlink="http://www.w3.org/1999/xlink" contentScriptType="application/ecmascript" contentStyleType="text/css" height="225px" preserveAspectRatio="none" style="width:312px;height:225px;" version="1.1" viewBox="0 0 312 225" width="312px" zoomAndPan="magnify"><defs><filter height="300%" id="f1q4jvlt2r0poc" width="300%" x="-1" y="-1"><feGaussianBlur result="blurOut" stdDeviation="2.0"/><feColorMatrix in="blurOut" result="blurOut2" type="matrix" values="0 0 0 0 0 0 0 0 0 0 0 0 0 0 0 0 0 0 .4 0"/><feOffset dx="4.0" dy="4.0" in="blurOut2" result="blurOut3"/><feBlend in="SourceGraphic" in2="blurOut3" mode="normal"/></filter></defs><g><!--MD5=[c27d767109b3913d4718b358a17ad24a]
cluster internal--><polygon fill="#FFFFFF" filter="url(#f1q4jvlt2r0poc)" points="22,24,88,24,95,46.2969,290,46.2969,290,213,22,213,22,24" style="stroke: #000000; stroke-width: 1.5;"/><line style="stroke: #000000; stroke-width: 1.5;" x1="22" x2="95" y1="46.2969" y2="46.2969"/><text fill="#000000" font-family="sans-serif" font-size="14" font-weight="bold" lengthAdjust="spacingAndGlyphs" textLength="60" x="26" y="38.9951">internal</text><!--MD5=[a4ba0c4bb4fd4c1ff73be1298269ade5]
class internal.tmp--><rect fill="#FEFECE" filter="url(#f1q4jvlt2r0poc)" height="137.6328" id="internal.tmp" style="stroke: #A80036; stroke-width: 1.5;" width="217" x="38.5" y="59"/><ellipse cx="53.5" cy="75" fill="#ADD1B2" rx="11" ry="11" style="stroke: #A80036; stroke-width: 1.0;"/><path d="M56.4688,80.6406 Q55.8906,80.9375 55.25,81.0781 Q54.6094,81.2344 53.9063,81.2344 Q51.4063,81.2344 50.0781,79.5938 Q48.7656,77.9375 48.7656,74.8125 Q48.7656,71.6875 50.0781,70.0313 Q51.4063,68.375 53.9063,68.375 Q54.6094,68.375 55.25,68.5313 Q55.9063,68.6875 56.4688,68.9844 L56.4688,71.7031 Q55.8438,71.125 55.25,70.8594 Q54.6563,70.5781 54.0313,70.5781 Q52.6875,70.5781 52,71.6563 Q51.3125,72.7188 51.3125,74.8125 Q51.3125,76.9063 52,77.9844 Q52.6875,79.0469 54.0313,79.0469 Q54.6563,79.0469 55.25,78.7813 Q55.8438,78.5 56.4688,77.9219 L56.4688,80.6406 Z "/><text fill="#000000" font-family="sans-serif" font-size="12" lengthAdjust="spacingAndGlyphs" textLength="24" x="67.5" y="79.1543">tmp</text><rect fill="#FFFFFF" height="15.9688" style="stroke: #000000; stroke-width: 1.0; stroke-dasharray: 2.0,2.0;" width="159" x="99.5" y="56"/><text fill="#000000" font-family="sans-serif" font-size="12" font-style="italic" lengthAdjust="spacingAndGlyphs" textLength="157" x="100.5" y="68.1387">template&lt;class Derived&gt;</text><line style="stroke: #A80036; stroke-width: 1.5;" x1="39.5" x2="254.5" y1="91" y2="91"/><ellipse cx="49.5" cy="102" fill="none" rx="3" ry="3" style="stroke: #038048; stroke-width: 1.0;"/><text fill="#000000" font-family="sans-serif" font-size="11" lengthAdjust="spacingAndGlyphs" textLength="115" x="58.5" y="105.2104">currentlyUsed : bool</text><rect fill="none" height="6" style="stroke: #C82930; stroke-width: 1.0;" width="6" x="46.5" y="111.8047"/><text fill="#000000" font-family="sans-serif" font-size="11" lengthAdjust="spacingAndGlyphs" text-decoration="underline" textLength="163" x="58.5" y="118.0151">buffer : static Vector&lt;tmp*&gt;</text><line style="stroke: #A80036; stroke-width: 1.5;" x1="39.5" x2="254.5" y1="124.6094" y2="124.6094"/><ellipse cx="49.5" cy="135.6094" fill="#84BE84" rx="3" ry="3" style="stroke: #038048; stroke-width: 1.0;"/><text fill="#000000" font-family="sans-serif" font-size="11" lengthAdjust="spacingAndGlyphs" text-decoration="underline" textLength="109" x="58.5" y="138.8198">bufferSize() : size_t</text><ellipse cx="49.5" cy="148.4141" fill="#84BE84" rx="3" ry="3" style="stroke: #038048; stroke-width: 1.0;"/><text fill="#000000" font-family="sans-serif" font-size="11" lengthAdjust="spacingAndGlyphs" text-decoration="underline" textLength="164" x="58.5" y="151.6245">currentlyUsedCount() : size_t</text><ellipse cx="49.5" cy="161.2188" fill="#84BE84" rx="3" ry="3" style="stroke: #038048; stroke-width: 1.0;"/><text fill="#000000" font-family="sans-serif" font-size="11" lengthAdjust="spacingAndGlyphs" text-decoration="underline" textLength="147" x="58.5" y="164.4292">get(Args ... shape) : tmp*</text><ellipse cx="49.5" cy="174.0234" fill="#84BE84" rx="3" ry="3" style="stroke: #038048; stroke-width: 1.0;"/><text fill="#000000" font-family="sans-serif" font-size="11" lengthAdjust="spacingAndGlyphs" textLength="91" x="58.5" y="177.2339">release() : tmp*</text><ellipse cx="49.5" cy="186.8281" fill="#84BE84" rx="3" ry="3" style="stroke: #038048; stroke-width: 1.0;"/><text fill="#000000" font-family="sans-serif" font-size="11" lengthAdjust="spacingAndGlyphs" text-decoration="underline" textLength="79" x="58.5" y="190.0386">freeAll() : void</text><!--MD5=[721666fe0d8c89c75f71ff74434003d3]
reverse link internal.tmp to internal.tmp--><path d="M268.46,106.24 C281.85,110.38 290.5,117.63 290.5,128 C290.5,141.41 276.05,149.61 255.57,152.59 " fill="none" id="internal.tmp&lt;-internal.tmp" style="stroke: #A80036; stroke-width: 1.0;"/><polygon fill="#FFFFFF" points="255.57,103.41,260.5737,108.6026,267.2913,105.981,262.2877,100.7884,255.57,103.41" style="stroke: #A80036; stroke-width: 1.0;"/><!--MD5=[2ce73e7316a28d75be42f81469aacbff]
@startuml






namespace internal {
	class tmp <template<class Derived>> {
		+currentlyUsed : bool
		+{static} bufferSize() : size_t
		+{static} currentlyUsedCount() : size_t
		-{static} buffer : static Vector<tmp*>
		+{static} get(Args ... shape) : tmp*
		+release() : tmp*
		+{static} freeAll() : void
	}
}










internal.tmp o- - internal.tmp









@enduml

PlantUML version 1.2020.02(Sun Mar 01 10:22:07 UTC 2020)
(GPL source distribution)
Java Runtime: OpenJDK Runtime Environment
JVM: OpenJDK 64-Bit Server VM
Java Version: 11.0.25+9
Operating System: Linux
Default Encoding: UTF-8
Language: en
Country: null
--></g></svg>